<svg width="559" height="636" viewBox="0 0 559 636" fill="none" xmlns="http://www.w3.org/2000/svg">
<g filter="url(#filter0_d_4052_5218)">
<rect x="29.5" y="29" width="500" height="577.5" rx="8" fill="#F6F6F6"/>
<path d="M229.5 337.125L255.956 310.47C257.028 309.391 258.3 308.534 259.7 307.95C261.1 307.366 262.6 307.065 264.115 307.065C265.631 307.065 267.131 307.366 268.531 307.95C269.931 308.534 271.203 309.391 272.274 310.47L298.731 337.125M291.038 329.375L298.264 322.095C299.336 321.016 300.608 320.159 302.007 319.575C303.407 318.991 304.908 318.69 306.423 318.69C307.938 318.69 309.439 318.991 310.839 319.575C312.239 320.159 313.511 321.016 314.582 322.095L329.5 337.125M237.192 356.5H321.808C323.848 356.5 325.804 355.683 327.247 354.23C328.69 352.777 329.5 350.805 329.5 348.75V286.75C329.5 284.695 328.69 282.723 327.247 281.27C325.804 279.817 323.848 279 321.808 279H237.192C235.152 279 233.196 279.817 231.753 281.27C230.31 282.723 229.5 284.695 229.5 286.75V348.75C229.5 350.805 230.31 352.777 231.753 354.23C233.196 355.683 235.152 356.5 237.192 356.5ZM291.038 298.375H291.079V298.416H291.038V298.375ZM292.962 298.375C292.962 298.889 292.759 299.382 292.398 299.745C292.038 300.108 291.548 300.312 291.038 300.312C290.528 300.312 290.039 300.108 289.679 299.745C289.318 299.382 289.115 298.889 289.115 298.375C289.115 297.861 289.318 297.368 289.679 297.005C290.039 296.642 290.528 296.437 291.038 296.437C291.548 296.437 292.038 296.642 292.398 297.005C292.759 297.368 292.962 297.861 292.962 298.375Z" stroke="#BEBEBE" stroke-width="5" stroke-linecap="round" stroke-linejoin="round"/>
</g>
<defs>
<filter id="filter0_d_4052_5218" x="0.9" y="0.4" width="557.2" height="634.7" filterUnits="userSpaceOnUse" color-interpolation-filters="sRGB">
<feFlood flood-opacity="0" result="BackgroundImageFix"/>
<feColorMatrix in="SourceAlpha" type="matrix" values="0 0 0 0 0 0 0 0 0 0 0 0 0 0 0 0 0 0 127 0" result="hardAlpha"/>
<feMorphology radius="5" operator="dilate" in="SourceAlpha" result="effect1_dropShadow_4052_5218"/>
<feOffset/>
<feGaussianBlur stdDeviation="11.8"/>
<feComposite in2="hardAlpha" operator="out"/>
<feColorMatrix type="matrix" values="0 0 0 0 0.0313726 0 0 0 0 0.101961 0 0 0 0 0.396078 0 0 0 0.25 0"/>
<feBlend mode="normal" in2="BackgroundImageFix" result="effect1_dropShadow_4052_5218"/>
<feBlend mode="normal" in="SourceGraphic" in2="effect1_dropShadow_4052_5218" result="shape"/>
</filter>
</defs>
</svg>
