<svg width="400" height="478" viewBox="0 0 400 478" fill="none" xmlns="http://www.w3.org/2000/svg">
<rect width="400" height="477.5" rx="8" fill="#F6F6F6"/>
<path d="M150 258.125L176.456 231.47C177.528 230.391 178.8 229.534 180.2 228.95C181.6 228.366 183.1 228.065 184.615 228.065C186.131 228.065 187.631 228.366 189.031 228.95C190.431 229.534 191.703 230.391 192.774 231.47L219.231 258.125M211.538 250.375L218.764 243.095C219.836 242.016 221.108 241.159 222.507 240.575C223.907 239.991 225.408 239.69 226.923 239.69C228.438 239.69 229.939 239.991 231.339 240.575C232.739 241.159 234.011 242.016 235.082 243.095L250 258.125M157.692 277.5H242.308C244.348 277.5 246.304 276.683 247.747 275.23C249.19 273.777 250 271.805 250 269.75V207.75C250 205.695 249.19 203.723 247.747 202.27C246.304 200.817 244.348 200 242.308 200H157.692C155.652 200 153.696 200.817 152.253 202.27C150.81 203.723 150 205.695 150 207.75V269.75C150 271.805 150.81 273.777 152.253 275.23C153.696 276.683 155.652 277.5 157.692 277.5ZM211.538 219.375H211.579V219.416H211.538V219.375ZM213.462 219.375C213.462 219.889 213.259 220.382 212.898 220.745C212.538 221.108 212.048 221.312 211.538 221.312C211.028 221.312 210.539 221.108 210.179 220.745C209.818 220.382 209.615 219.889 209.615 219.375C209.615 218.861 209.818 218.368 210.179 218.005C210.539 217.642 211.028 217.437 211.538 217.437C212.048 217.437 212.538 217.642 212.898 218.005C213.259 218.368 213.462 218.861 213.462 219.375Z" stroke="#BEBEBE" stroke-width="5" stroke-linecap="round" stroke-linejoin="round"/>
</svg>
