<svg width="200" height="160" viewBox="0 0 200 160" fill="none" xmlns="http://www.w3.org/2000/svg">
<rect width="200" height="160" rx="9.6" fill="#2884F4"/>
<path d="M80 87.75L90.5826 77.0881C91.0111 76.6563 91.5199 76.3137 92.0799 76.0801C92.6399 75.8464 93.24 75.7261 93.8462 75.7261C94.4523 75.7261 95.0524 75.8464 95.6124 76.0801C96.1724 76.3137 96.6812 76.6563 97.1097 77.0881L107.692 87.75M104.615 84.65L107.506 81.7381C107.934 81.3063 108.443 80.9637 109.003 80.7301C109.563 80.4964 110.163 80.3761 110.769 80.3761C111.375 80.3761 111.976 80.4964 112.535 80.7301C113.095 80.9637 113.604 81.3063 114.033 81.7381L120 87.75M83.0769 95.5H116.923C117.739 95.5 118.522 95.1734 119.099 94.592C119.676 94.0107 120 93.2222 120 92.4V67.6C120 66.7778 119.676 65.9893 119.099 65.408C118.522 64.8266 117.739 64.5 116.923 64.5H83.0769C82.2609 64.5 81.4782 64.8266 80.9012 65.408C80.3242 65.9893 80 66.7778 80 67.6V92.4C80 93.2222 80.3242 94.0107 80.9012 94.592C81.4782 95.1734 82.2609 95.5 83.0769 95.5ZM104.615 72.25H104.632V72.2665H104.615V72.25ZM105.385 72.25C105.385 72.4555 105.304 72.6527 105.159 72.798C105.015 72.9433 104.819 73.025 104.615 73.025C104.411 73.025 104.216 72.9433 104.071 72.798C103.927 72.6527 103.846 72.4555 103.846 72.25C103.846 72.0445 103.927 71.8473 104.071 71.702C104.216 71.5567 104.411 71.475 104.615 71.475C104.819 71.475 105.015 71.5567 105.159 71.702C105.304 71.8473 105.385 72.0445 105.385 72.25Z" stroke="#FEFEFE" stroke-width="2" stroke-linecap="round" stroke-linejoin="round"/>
</svg>
